{
  "accessors": [
    {
      "bufferView": 2,
      "componentType": 5126,
      "count": 56,
      "max": [
        175.24600219726563,
        31.492000579833984,
        57.07789993286133
      ],
      "min": [
        -43.57400131225586,
        -21.243799209594727,
        1.5709999799728394
      ],
      "type": "VEC3"
    },
    {
      "bufferView": 2,
      "byteOffset": 672,
      "componentType": 5126,
      "count": 56,
      "max": [
        -2.3458811483578756e-05,
        0.9848077893257141,
        -0.1736479550600052
      ],
      "min": [
        -2.6014595277956687e-05,
        0.9390944838523865,
        -0.3436591625213623
      ],
      "type": "VEC3"
    },
    {
      "bufferView": 1,
      "componentType": 5126,
      "count": 56,
      "max": [
        1.333910021969431e-22,
        1.968500018119812
      ],
      "min": [
        -3.5433099269866943,
        1.1047599929876113e-16
      ],
      "type": "VEC2"
    },
    {
      "bufferView": 0,
      "componentType": 5125,
      "count": 84,
      "type": "SCALAR"
    },
    {
      "bufferView": 2,
      "byteOffset": 1344,
      "componentType": 5126,
      "count": 527,
      "max": [
        179.05099487304688,
        76.90119934082031,
        256.8219909667969
      ],
      "min": [
        -187.68299865722656,
        -29.625600814819336,
        6.497199913496621e-12
      ],
      "type": "VEC3"
    },
    {
      "bufferView": 0,
      "byteOffset": 336,
      "componentType": 5125,
      "count": 1240,
      "type": "SCALAR"
    },
    {
      "bufferView": 2,
      "byteOffset": 7668,
      "componentType": 5126,
      "count": 1596,
      "max": [
        179.05099487304688,
        76.90119934082031,
        256.8219909667969
      ],
      "min": [
        -187.68299865722656,
        -29.625600814819336,
        6.497199913496621e-12
      ],
      "type": "VEC3"
    },
    {
      "bufferView": 2,
      "byteOffset": 26820,
      "componentType": 5126,
      "count": 1596,
      "max": [
        1.0,
        1.0,
        1.0
      ],
      "min": [
        -1.0,
        -1.0,
        -1.0
      ],
      "type": "VEC3"
    },
    {
      "bufferView": 1,
      "byteOffset": 448,
      "componentType": 5126,
      "count": 1596,
      "max": [
        4.409460067749023,
        10.25510025024414
      ],
      "min": [
        -4.409460067749023,
        -3.009500026702881
      ],
      "type": "VEC2"
    },
    {
      "bufferView": 0,
      "byteOffset": 5296,
      "componentType": 5125,
      "count": 3006,
      "type": "SCALAR"
    },
    {
      "bufferView": 2,
      "byteOffset": 45972,
      "componentType": 5126,
      "count": 12,
      "max": [
        171.5590057373047,
        74.15740203857422,
        247.125
      ],
      "min": [
        -176.48500061035156,
        12.77299976348877,
        61.8931999206543
      ],
      "type": "VEC3"
    },
    {
      "bufferView": 1,
      "byteOffset": 13216,
      "componentType": 5126,
      "count": 12,
      "max": [
        0.0,
        0.0
      ],
      "min": [
        0.0,
        0.0
      ],
      "type": "VEC2"
    },
    {
      "bufferView": 0,
      "byteOffset": 17320,
      "componentType": 5125,
      "count": 24,
      "type": "SCALAR"
    },
    {
      "bufferView": 2,
      "byteOffset": 46116,
      "componentType": 5126,
      "count": 12,
      "max": [
        171.5590057373047,
        74.15740203857422,
        247.125
      ],
      "min": [
        -176.48500061035156,
        12.77299976348877,
        61.8931999206543
      ],
      "type": "VEC3"
    },
    {
      "bufferView": 2,
      "byteOffset": 46260,
      "componentType": 5126,
      "count": 12,
      "max": [
        -0.0002710999979171902,
        -0.9844635128974915,
        0.17558890581130981
      ],
      "min": [
        -0.0003337618545629084,
        -1.0,
        0.00022532700677402318
      ],
      "type": "VEC3"
    },
    {
      "bufferView": 1,
      "byteOffset": 13312,
      "componentType": 5126,
      "count": 12,
      "max": [
        1.0,
        1.0
      ],
      "min": [
        -1.8391999607625007e-16,
        1.860619968160684e-16
      ],
      "type": "VEC2"
    },
    {
      "bufferView": 0,
      "byteOffset": 17416,
      "componentType": 5125,
      "count": 18,
      "type": "SCALAR"
    },
    {
      "bufferView": 2,
      "byteOffset": 46404,
      "componentType": 5126,
      "count": 24,
      "max": [
        -82.53040313720703,
        64.70330047607422,
        207.1909942626953
      ],
      "min": [
        -182.52999877929688,
        18.237199783325195,
        0.3817000091075897
      ],
      "type": "VEC3"
    },
    {
      "bufferView": 2,
      "byteOffset": 46692,
      "componentType": 5126,
      "count": 24,
      "max": [
        2.669709245339824e-11,
        -0.9848077893257141,
        0.1736479550600052
      ],
      "min": [
        2.669709245339824e-11,
        -0.9848077893257141,
        0.1736479550600052
      ],
      "type": "VEC3"
    },
    {
      "bufferView": 1,
      "byteOffset": 13408,
      "componentType": 5126,
      "count": 24,
      "max": [
        1.0,
        0.9991940259933472
      ],
      "min": [
        0.0,
        0.0
      ],
      "type": "VEC2"
    },
    {
      "bufferView": 0,
      "byteOffset": 17488,
      "componentType": 5125,
      "count": 36,
      "type": "SCALAR"
    },
    {
      "bufferView": 2,
      "byteOffset": 46980,
      "componentType": 5126,
      "count": 56,
      "max": [
        175.24600219726563,
        30.99959945678711,
        57.249698638916016
      ],
      "min": [
        -43.57400131225586,
        -21.713300704956055,
        1.6578199863433838
      ],
      "type": "VEC3"
    },
    {
      "bufferView": 2,
      "byteOffset": 47652,
      "componentType": 5126,
      "count": 56,
      "max": [
        2.6014595277956687e-05,
        -0.9390944838523865,
        0.3436591625213623
      ],
      "min": [
        2.3458811483578756e-05,
        -0.9848077893257141,
        0.1736479550600052
      ],
      "type": "VEC3"
    },
    {
      "bufferView": 1,
      "byteOffset": 13600,
      "componentType": 5126,
      "count": 56,
      "max": [
        1.0,
        1.0004700422286987
      ],
      "min": [
        5.013269848047391e-16,
        -1.4106499938462919e-16
      ],
      "type": "VEC2"
    },
    {
      "bufferView": 0,
      "byteOffset": 17632,
      "componentType": 5125,
      "count": 84,
      "type": "SCALAR"
    },
    {
      "bufferView": 2,
      "byteOffset": 48324,
      "componentType": 5126,
      "count": 24,
      "max": [
        -82.53040313720703,
        65.1957015991211,
        207.10499572753906
      ],
      "min": [
        -182.52999877929688,
        18.72960090637207,
        0.29487600922584534
      ],
      "type": "VEC3"
    },
    {
      "bufferView": 2,
      "byteOffset": 48612,
      "componentType": 5126,
      "count": 24,
      "max": [
        -2.669709245339824e-11,
        0.9848077893257141,
        -0.1736479550600052
      ],
      "min": [
        -2.669709245339824e-11,
        0.9848077893257141,
        -0.1736479550600052
      ],
      "type": "VEC3"
    },
    {
      "bufferView": 1,
      "byteOffset": 14048,
      "componentType": 5126,
      "count": 24,
      "max": [
        0.0,
        8.267720222473145
      ],
      "min": [
        -3.9370100498199463,
        0.0
      ],
      "type": "VEC2"
    },
    {
      "bufferView": 0,
      "byteOffset": 17968,
      "componentType": 5125,
      "count": 36,
      "type": "SCALAR"
    },
    {
      "bufferView": 2,
      "byteOffset": 48900,
      "componentType": 5126,
      "count": 160,
      "max": [
        175.24600219726563,
        65.1957015991211,
        207.1909942626953
      ],
      "min": [
        -182.52999877929688,
        -21.713300704956055,
        0.29487600922584534
      ],
      "type": "VEC3"
    },
    {
      "bufferView": 0,
      "byteOffset": 18112,
      "componentType": 5125,
      "count": 480,
      "type": "SCALAR"
    },
    {
      "bufferView": 2,
      "byteOffset": 50820,
      "componentType": 5126,
      "count": 320,
      "max": [
        175.24600219726563,
        65.1957015991211,
        207.1909942626953
      ],
      "min": [
        -182.52999877929688,
        -21.713300704956055,
        0.29487600922584534
      ],
      "type": "VEC3"
    },
    {
      "bufferView": 2,
      "byteOffset": 54660,
      "componentType": 5126,
      "count": 320,
      "max": [
        1.0,
        0.3436591625213623,
        0.9848077893257141
      ],
      "min": [
        -1.0,
        -0.3436591625213623,
        -0.9848077893257141
      ],
      "type": "VEC3"
    },
    {
      "bufferView": 1,
      "byteOffset": 14240,
      "componentType": 5126,
      "count": 320,
      "max": [
        3.9370100498199463,
        8.267720222473145
      ],
      "min": [
        -3.9370100498199463,
        -1.0927399998960318e-16
      ],
      "type": "VEC2"
    },
    {
      "bufferView": 0,
      "byteOffset": 20032,
      "componentType": 5125,
      "count": 480,
      "type": "SCALAR"
    }
  ],
  "asset": {
    "extras": {
      "author": "ap3design (https://sketchfab.com/ap3design)",
      "license": "CC-BY-4.0 (http://creativecommons.org/licenses/by/4.0/)",
      "source": "https://sketchfab.com/3d-models/business-cardbooklet-holder-c9f8cc55a7e942e3bd1ff835deccf0a5",
      "title": "Business card/booklet holder"
    },
    "generator": "Sketchfab-12.68.0",
    "version": "2.0"
  },
  "bufferViews": [
    {
      "buffer": 0,
      "byteLength": 21952,
      "name": "floatBufferViews",
      "target": 34963
    },
    {
      "buffer": 0,
      "byteLength": 16800,
      "byteOffset": 21952,
      "byteStride": 8,
      "name": "floatBufferViews",
      "target": 34962
    },
    {
      "buffer": 0,
      "byteLength": 58500,
      "byteOffset": 38752,
      "byteStride": 12,
      "name": "floatBufferViews",
      "target": 34962
    }
  ],
  "buffers": [
    {
      "byteLength": 97252,
      "uri": "scene.bin"
    }
  ],
  "extensionsRequired": [
    "KHR_materials_pbrSpecularGlossiness"
  ],
  "extensionsUsed": [
    "KHR_materials_pbrSpecularGlossiness"
  ],
  "images": [
    {
      "uri": "textures/Graphic1_diffuse.png"
    },
    {
      "uri": "textures/material_diffuse.jpeg"
    },
    {
      "uri": "textures/material_4_diffuse.jpeg"
    }
  ],
  "materials": [
    {
      "doubleSided": true,
      "extensions": {
        "KHR_materials_pbrSpecularGlossiness": {
          "diffuseFactor": [
            1.0,
            1.0,
            1.0,
            1.0
          ],
          "glossinessFactor": 0.8,
          "specularFactor": [
            0.0,
            0.0,
            0.0
          ]
        }
      },
      "name": "Color_000"
    },
    {
      "alphaMode": "BLEND",
      "extensions": {
        "KHR_materials_pbrSpecularGlossiness": {
          "diffuseFactor": [
            0.85,
            0.85,
            0.85,
            0.1
          ],
          "glossinessFactor": 0.69,
          "specularFactor": [
            0.47,
            0.47,
            0.47
          ]
        }
      },
      "name": "Color_H10"
    },
    {
      "alphaCutoff": 0.78,
      "alphaMode": "MASK",
      "doubleSided": true,
      "extensions": {
        "KHR_materials_pbrSpecularGlossiness": {
          "diffuseFactor": [
            1.0,
            1.0,
            1.0,
            1.0
          ],
          "diffuseTexture": {
            "index": 0
          },
          "glossinessFactor": 0.8,
          "specularFactor": [
            0.0,
            0.0,
            0.0
          ]
        }
      },
      "name": "Graphic1"
    },
    {
      "doubleSided": true,
      "extensions": {
        "KHR_materials_pbrSpecularGlossiness": {
          "diffuseFactor": [
            1.0,
            1.0,
            1.0,
            1.0
          ],
          "diffuseTexture": {
            "index": 1
          },
          "glossinessFactor": 0.8,
          "specularFactor": [
            0.0,
            0.0,
            0.0
          ]
        }
      },
      "name": "material"
    },
    {
      "doubleSided": true,
      "extensions": {
        "KHR_materials_pbrSpecularGlossiness": {
          "diffuseFactor": [
            1.0,
            1.0,
            1.0,
            1.0
          ],
          "diffuseTexture": {
            "index": 2
          },
          "glossinessFactor": 0.8,
          "specularFactor": [
            0.0,
            0.0,
            0.0
          ]
        }
      },
      "name": "material_4"
    },
    {
      "doubleSided": true,
      "extensions": {
        "KHR_materials_pbrSpecularGlossiness": {
          "diffuseFactor": [
            1.0,
            1.0,
            1.0,
            1.0
          ],
          "glossinessFactor": 0.8,
          "specularFactor": [
            0.28,
            0.28,
            0.28
          ]
        }
      },
      "name": "Material1"
    },
    {
      "alphaMode": "BLEND",
      "doubleSided": true,
      "extensions": {
        "KHR_materials_pbrSpecularGlossiness": {
          "diffuseFactor": [
            1.0,
            1.0,
            1.0,
            0.59
          ],
          "glossinessFactor": 0.8,
          "specularFactor": [
            0.0,
            0.0,
            0.0
          ]
        }
      },
      "name": "Color_H10_1"
    }
  ],
  "meshes": [
    {
      "name": "Object_0",
      "primitives": [
        {
          "attributes": {
            "NORMAL": 1,
            "POSITION": 0,
            "TEXCOORD_0": 2
          },
          "indices": 3,
          "material": 0,
          "mode": 4
        }
      ]
    },
    {
      "name": "Object_1",
      "primitives": [
        {
          "attributes": {
            "POSITION": 4
          },
          "indices": 5,
          "material": 1,
          "mode": 1
        }
      ]
    },
    {
      "name": "Object_2",
      "primitives": [
        {
          "attributes": {
            "NORMAL": 7,
            "POSITION": 6,
            "TEXCOORD_0": 8
          },
          "indices": 9,
          "material": 1,
          "mode": 4
        }
      ]
    },
    {
      "name": "Object_3",
      "primitives": [
        {
          "attributes": {
            "POSITION": 10,
            "TEXCOORD_0": 11
          },
          "indices": 12,
          "material": 2,
          "mode": 1
        }
      ]
    },
    {
      "name": "Object_4",
      "primitives": [
        {
          "attributes": {
            "NORMAL": 14,
            "POSITION": 13,
            "TEXCOORD_0": 15
          },
          "indices": 16,
          "material": 2,
          "mode": 4
        }
      ]
    },
    {
      "name": "Object_5",
      "primitives": [
        {
          "attributes": {
            "NORMAL": 18,
            "POSITION": 17,
            "TEXCOORD_0": 19
          },
          "indices": 20,
          "material": 3,
          "mode": 4
        }
      ]
    },
    {
      "name": "Object_6",
      "primitives": [
        {
          "attributes": {
            "NORMAL": 22,
            "POSITION": 21,
            "TEXCOORD_0": 23
          },
          "indices": 24,
          "material": 4,
          "mode": 4
        }
      ]
    },
    {
      "name": "Object_7",
      "primitives": [
        {
          "attributes": {
            "NORMAL": 26,
            "POSITION": 25,
            "TEXCOORD_0": 27
          },
          "indices": 28,
          "material": 5,
          "mode": 4
        }
      ]
    },
    {
      "name": "Object_8",
      "primitives": [
        {
          "attributes": {
            "POSITION": 29
          },
          "indices": 30,
          "material": 6,
          "mode": 1
        }
      ]
    },
    {
      "name": "Object_9",
      "primitives": [
        {
          "attributes": {
            "NORMAL": 32,
            "POSITION": 31,
            "TEXCOORD_0": 33
          },
          "indices": 34,
          "material": 6,
          "mode": 4
        }
      ]
    }
  ],
  "nodes": [
    {
      "children": [
        1
      ],
      "matrix": [
        1.0,
        0.0,
        0.0,
        0.0,
        0.0,
        2.220446049250313e-16,
        -1.0,
        0.0,
        0.0,
        1.0,
        2.220446049250313e-16,
        0.0,
        0.0,
        0.0,
        0.0,
        1.0
      ],
      "name": "Sketchfab_model"
    },
    {
      "children": [
        2,
        3,
        4,
        5,
        6,
        7,
        8,
        9,
        10,
        11
      ],
      "name": "VIZ_3.obj.cleaner"
    },
    {
      "mesh": 0,
      "name": "Object_2"
    },
    {
      "mesh": 1,
      "name": "Object_3"
    },
    {
      "mesh": 2,
      "name": "Object_4"
    },
    {
      "mesh": 3,
      "name": "Object_5"
    },
    {
      "mesh": 4,
      "name": "Object_6"
    },
    {
      "mesh": 5,
      "name": "Object_7"
    },
    {
      "mesh": 6,
      "name": "Object_8"
    },
    {
      "mesh": 7,
      "name": "Object_9"
    },
    {
      "mesh": 8,
      "name": "Object_10"
    },
    {
      "mesh": 9,
      "name": "Object_11"
    }
  ],
  "samplers": [
    {
      "magFilter": 9729,
      "minFilter": 9987,
      "wrapS": 10497,
      "wrapT": 10497
    }
  ],
  "scene": 0,
  "scenes": [
    {
      "name": "Sketchfab_Scene",
      "nodes": [
        0
      ]
    }
  ],
  "textures": [
    {
      "sampler": 0,
      "source": 0
    },
    {
      "sampler": 0,
      "source": 1
    },
    {
      "sampler": 0,
      "source": 2
    }
  ]
}
