<?xml version="1.0" encoding="UTF-8"?>
<!DOCTYPE svg PUBLIC "-//W3C//DTD SVG 1.1//EN" "http://www.w3.org/Graphics/SVG/1.1/DTD/svg11.dtd">
<svg xmlns="http://www.w3.org/2000/svg" version="1.1" width="424px" height="96px" style="shape-rendering:geometricPrecision; text-rendering:geometricPrecision; image-rendering:optimizeQuality; fill-rule:evenodd; clip-rule:evenodd" xmlns:xlink="http://www.w3.org/1999/xlink">
<g><path style="opacity:0.985" fill="#4c138b" d="M 357.5,12.5 C 378.169,12.3334 398.836,12.5 419.5,13C 403.956,28.2126 388.123,43.0459 372,57.5C 364.748,52.2534 358.082,46.2534 352,39.5C 351.333,32.5 351.333,25.5 352,18.5C 353.36,15.9774 355.193,13.9774 357.5,12.5 Z"/></g>
<g><path style="opacity:0.949" fill="#fe6500" d="M 417.5,18.5 C 418.832,27.141 419.498,36.141 419.5,45.5C 419.333,54.5 419.167,63.5 419,72.5C 418.31,75.196 416.81,77.3626 414.5,79C 395.924,80.6403 377.257,80.9736 358.5,80C 356.413,79.2078 354.579,78.0412 353,76.5C 351.381,65.9319 351.048,55.2653 352,44.5C 358.42,54.3407 365.087,64.0074 372,73.5C 387.756,55.5847 402.922,37.2513 417.5,18.5 Z"/></g>
<g><path style="opacity:0.676" fill="#fe6600" d="M 118.5,19.5 C 121.5,19.5 124.5,19.5 127.5,19.5C 127.5,21.1667 127.5,22.8333 127.5,24.5C 124.5,24.5 121.5,24.5 118.5,24.5C 118.5,22.8333 118.5,21.1667 118.5,19.5 Z"/></g>
<g><path style="opacity:0.75" fill="#fe6500" d="M 322.5,19.5 C 323.833,19.5 325.167,19.5 326.5,19.5C 326.5,21.1667 326.5,22.8333 326.5,24.5C 325.167,24.5 323.833,24.5 322.5,24.5C 322.5,22.8333 322.5,21.1667 322.5,19.5 Z"/></g>
<g><path style="opacity:0.75" fill="#fe6500" d="M 327.5,19.5 C 328.833,19.5 330.167,19.5 331.5,19.5C 331.5,21.1667 331.5,22.8333 331.5,24.5C 330.167,24.5 328.833,24.5 327.5,24.5C 327.5,22.8333 327.5,21.1667 327.5,19.5 Z"/></g>
<g><path style="opacity:0.856" fill="#fe6600" d="M 38.5,21.5 C 40.5,21.5 42.5,21.5 44.5,21.5C 44.5,26.1667 44.5,30.8333 44.5,35.5C 45.8333,35.5 47.1667,35.5 48.5,35.5C 48.7597,26.9391 53.093,23.9391 61.5,26.5C 61.8186,28.7505 61.3186,30.7505 60,32.5C 56.0503,29.3925 54.217,30.3925 54.5,35.5C 57.1667,35.5 59.8333,35.5 62.5,35.5C 62.5,37.1667 62.5,38.8333 62.5,40.5C 50.8333,40.5 39.1667,40.5 27.5,40.5C 27.5,38.8333 27.5,37.1667 27.5,35.5C 28.8333,35.5 30.1667,35.5 31.5,35.5C 31.5,31.8333 31.5,28.1667 31.5,24.5C 33.1667,24.5 34.8333,24.5 36.5,24.5C 36.1774,28.226 36.5108,31.8927 37.5,35.5C 38.4933,30.8804 38.8266,26.2137 38.5,21.5 Z"/></g>
<g><path style="opacity:0.898" fill="#fe6500" d="M 74.5,21.5 C 76.1667,21.5 77.8333,21.5 79.5,21.5C 79.5,27.8333 79.5,34.1667 79.5,40.5C 74.1667,40.5 68.8333,40.5 63.5,40.5C 63.5,38.8333 63.5,37.1667 63.5,35.5C 64.5,35.5 65.5,35.5 66.5,35.5C 66.5,31.8333 66.5,28.1667 66.5,24.5C 68.5,24.5 70.5,24.5 72.5,24.5C 72.1774,28.226 72.5108,31.8927 73.5,35.5C 74.4933,30.8804 74.8266,26.2137 74.5,21.5 Z"/></g>
<g><path style="opacity:0.811" fill="#fe6600" d="M 82.5,21.5 C 84.5,21.5 86.5,21.5 88.5,21.5C 88.5,27.8333 88.5,34.1667 88.5,40.5C 86.5,40.5 84.5,40.5 82.5,40.5C 82.5,34.1667 82.5,27.8333 82.5,21.5 Z"/></g>
<g><path style="opacity:0.894" fill="#fe6500" d="M 144.5,21.5 C 146.167,21.5 147.833,21.5 149.5,21.5C 149.5,26.1667 149.5,30.8333 149.5,35.5C 151.167,35.5 152.833,35.5 154.5,35.5C 154.855,26.9217 159.188,23.9217 167.5,26.5C 167.662,28.5273 167.495,30.5273 167,32.5C 162.665,29.0852 160.498,30.0852 160.5,35.5C 163.167,35.5 165.833,35.5 168.5,35.5C 168.5,37.1667 168.5,38.8333 168.5,40.5C 160.5,40.5 152.5,40.5 144.5,40.5C 144.5,34.1667 144.5,27.8333 144.5,21.5 Z"/></g>
<g><path style="opacity:0.865" fill="#fe6500" d="M 189.5,21.5 C 191.5,21.5 193.5,21.5 195.5,21.5C 195.5,26.1667 195.5,30.8333 195.5,35.5C 196.833,35.5 198.167,35.5 199.5,35.5C 199.5,30.8333 199.5,26.1667 199.5,21.5C 201.5,21.5 203.5,21.5 205.5,21.5C 205.5,27.8333 205.5,34.1667 205.5,40.5C 193.5,40.5 181.5,40.5 169.5,40.5C 169.5,38.8333 169.5,37.1667 169.5,35.5C 172.167,35.5 174.833,35.5 177.5,35.5C 177.185,31.1996 174.851,29.533 170.5,30.5C 170.5,29.1667 170.5,27.8333 170.5,26.5C 178.457,24.3097 182.791,27.3097 183.5,35.5C 185.5,35.5 187.5,35.5 189.5,35.5C 189.5,30.8333 189.5,26.1667 189.5,21.5 Z"/></g>
<g><path style="opacity:0.907" fill="#fe6500" d="M 215.5,21.5 C 217.167,21.5 218.833,21.5 220.5,21.5C 220.5,26.1667 220.5,30.8333 220.5,35.5C 222.5,35.5 224.5,35.5 226.5,35.5C 226.5,32.5 226.5,29.5 226.5,26.5C 228.5,26.5 230.5,26.5 232.5,26.5C 232.5,31.1667 232.5,35.8333 232.5,40.5C 226.833,40.5 221.167,40.5 215.5,40.5C 215.5,34.1667 215.5,27.8333 215.5,21.5 Z"/></g>
<g><path style="opacity:0.853" fill="#fe6500" d="M 14.5,22.5 C 16.1667,22.5 17.8333,22.5 19.5,22.5C 19.5,23.8333 19.5,25.1667 19.5,26.5C 17.8333,26.5 16.1667,26.5 14.5,26.5C 14.5,25.1667 14.5,23.8333 14.5,22.5 Z"/></g>
<g><path style="opacity:0.886" fill="#fe6600" d="M 96.5,25.5 C 99.5176,25.7038 102.518,26.0371 105.5,26.5C 105.666,32.5092 105.499,38.5092 105,44.5C 104.167,45.3333 103.333,46.1667 102.5,47C 99.5184,47.498 96.5184,47.6646 93.5,47.5C 93.5,45.8333 93.5,44.1667 93.5,42.5C 102.652,41.517 102.652,40.6837 93.5,40C 93,39.5 92.5,39 92,38.5C 91.3333,35.1667 91.3333,31.8333 92,28.5C 93.4087,27.2189 94.9087,26.2189 96.5,25.5 Z M 98.5,30.5 C 100.256,31.5521 100.923,33.2188 100.5,35.5C 96.1889,35.2153 95.5222,33.5487 98.5,30.5 Z"/></g>
<g><path style="opacity:0.887" fill="#fe6500" d="M 239.5,25.5 C 245.36,25.6937 248.694,28.6937 249.5,34.5C 251.396,35.4656 253.396,35.7989 255.5,35.5C 255.5,32.5 255.5,29.5 255.5,26.5C 257.167,26.5 258.833,26.5 260.5,26.5C 260.5,29.5 260.5,32.5 260.5,35.5C 262.833,35.5 265.167,35.5 267.5,35.5C 267.62,32.5198 268.287,29.6865 269.5,27C 281.114,24.1125 285.781,28.6125 283.5,40.5C 267.167,40.5 250.833,40.5 234.5,40.5C 234.5,38.8333 234.5,37.1667 234.5,35.5C 237.572,35.8174 240.572,35.4841 243.5,34.5C 241.041,31.8956 238.375,29.5623 235.5,27.5C 236.949,26.8281 238.282,26.1614 239.5,25.5 Z M 273.5,31.5 C 274.833,31.5 276.167,31.5 277.5,31.5C 277.5,32.8333 277.5,34.1667 277.5,35.5C 276.167,35.5 274.833,35.5 273.5,35.5C 273.5,34.1667 273.5,32.8333 273.5,31.5 Z"/></g>
<g><path style="opacity:0.886" fill="#fe6600" d="M 296.5,25.5 C 299.518,25.7038 302.518,26.0371 305.5,26.5C 305.666,32.5092 305.499,38.5092 305,44.5C 304.167,45.3333 303.333,46.1667 302.5,47C 299.518,47.498 296.518,47.6646 293.5,47.5C 293.5,45.8333 293.5,44.1667 293.5,42.5C 302.652,41.517 302.652,40.6837 293.5,40C 293,39.5 292.5,39 292,38.5C 291.333,35.1667 291.333,31.8333 292,28.5C 293.409,27.2189 294.909,26.2189 296.5,25.5 Z M 298.5,30.5 C 300.256,31.5521 300.923,33.2188 300.5,35.5C 296.189,35.2153 295.522,33.5487 298.5,30.5 Z"/></g>
<g><path style="opacity:0.814" fill="#fe6600" d="M 20.5,26.5 C 22.5,26.5 24.5,26.5 26.5,26.5C 26.6659,31.5111 26.4993,36.5111 26,41.5C 24.7381,45.9722 21.7381,47.9722 17,47.5C 14.41,47.6243 12.0767,46.9577 10,45.5C 8.47958,41.6251 8.14625,37.6251 9,33.5C 10.6995,32.5939 12.5328,32.2606 14.5,32.5C 13.6426,35.5491 13.6426,38.5491 14.5,41.5C 16.0745,42.6309 17.7412,42.7975 19.5,42C 20.4714,36.9283 20.8047,31.7616 20.5,26.5 Z"/></g>
<g><path style="opacity:0.863" fill="#fe6600" d="M 115.5,26.5 C 120.167,26.5 124.833,26.5 129.5,26.5C 129.5,29.5 129.5,32.5 129.5,35.5C 131.5,35.5 133.5,35.5 135.5,35.5C 135.5,32.5 135.5,29.5 135.5,26.5C 137.5,26.5 139.5,26.5 141.5,26.5C 141.5,31.1667 141.5,35.8333 141.5,40.5C 132.827,40.6664 124.16,40.4998 115.5,40C 112.867,35.5009 112.867,31.0009 115.5,26.5 Z M 119.5,31.5 C 120.833,31.5 122.167,31.5 123.5,31.5C 123.5,32.8333 123.5,34.1667 123.5,35.5C 119.56,36.234 118.227,34.9007 119.5,31.5 Z"/></g>
<g><path style="opacity:0.883" fill="#fe6500" d="M 309.5,26.5 C 311.167,26.5 312.833,26.5 314.5,26.5C 314.5,29.5 314.5,32.5 314.5,35.5C 317.5,35.5 320.5,35.5 323.5,35.5C 323.5,32.5 323.5,29.5 323.5,26.5C 325.5,26.5 327.5,26.5 329.5,26.5C 329.5,31.1667 329.5,35.8333 329.5,40.5C 324.5,40.5 319.5,40.5 314.5,40.5C 315.028,45.8114 312.694,48.1447 307.5,47.5C 309.223,40.7067 309.889,33.7067 309.5,26.5 Z"/></g>
<g><path style="opacity:0.75" fill="#fe6500" d="M 134.5,42.5 C 135.833,42.5 137.167,42.5 138.5,42.5C 138.5,44.1667 138.5,45.8333 138.5,47.5C 137.167,47.5 135.833,47.5 134.5,47.5C 134.5,45.8333 134.5,44.1667 134.5,42.5 Z"/></g>
<g><path style="opacity:0.75" fill="#fe6500" d="M 139.5,42.5 C 140.833,42.5 142.167,42.5 143.5,42.5C 143.5,44.1667 143.5,45.8333 143.5,47.5C 142.167,47.5 140.833,47.5 139.5,47.5C 139.5,45.8333 139.5,44.1667 139.5,42.5 Z"/></g>
<g><path style="opacity:0.75" fill="#fe6500" d="M 225.5,42.5 C 226.833,42.5 228.167,42.5 229.5,42.5C 229.5,44.1667 229.5,45.8333 229.5,47.5C 228.167,47.5 226.833,47.5 225.5,47.5C 225.5,45.8333 225.5,44.1667 225.5,42.5 Z"/></g>
<g><path style="opacity:0.75" fill="#fe6500" d="M 230.5,42.5 C 231.833,42.5 233.167,42.5 234.5,42.5C 234.5,44.1667 234.5,45.8333 234.5,47.5C 233.167,47.5 231.833,47.5 230.5,47.5C 230.5,45.8333 230.5,44.1667 230.5,42.5 Z"/></g>
<g><path style="opacity:0.676" fill="#fe6600" d="M 253.5,42.5 C 256.5,42.5 259.5,42.5 262.5,42.5C 262.5,44.1667 262.5,45.8333 262.5,47.5C 259.5,47.5 256.5,47.5 253.5,47.5C 253.5,45.8333 253.5,44.1667 253.5,42.5 Z"/></g>
<g><path style="opacity:0.747" fill="#fe6500" d="M 66.5,43.5 C 68.1667,43.5 69.8333,43.5 71.5,43.5C 71.6495,44.552 71.4828,45.552 71,46.5C 70.0862,45.3463 69.2529,45.513 68.5,47C 69.938,47.2189 71.2713,47.7189 72.5,48.5C 70.4902,50.1713 68.1569,50.838 65.5,50.5C 65.298,48.0504 65.6314,45.717 66.5,43.5 Z"/></g>
<g><path style="opacity:0.742" fill="#4c138b" d="M 5.5,57.5 C 9.35069,56.1905 13.3507,56.1905 17.5,57.5C 16.3112,58.4287 14.9778,58.762 13.5,58.5C 13.5,62.8333 13.5,67.1667 13.5,71.5C 12.5,71.5 11.5,71.5 10.5,71.5C 10.5,67.1667 10.5,62.8333 10.5,58.5C 8.70848,58.634 7.04181,58.3007 5.5,57.5 Z"/></g>
<g><path style="opacity:0.772" fill="#4c138b" d="M 22.5,56.5 C 25.5184,56.3354 28.5184,56.502 31.5,57C 34.1217,60.1305 34.1217,63.2972 31.5,66.5C 32.1667,67.8333 32.8333,69.1667 33.5,70.5C 30.7369,71.7843 29.0703,70.7843 28.5,67.5C 27.675,66.6143 26.675,66.281 25.5,66.5C 25.5,68.1667 25.5,69.8333 25.5,71.5C 24.5,71.5 23.5,71.5 22.5,71.5C 22.5,66.5 22.5,61.5 22.5,56.5 Z M 25.5,58.5 C 30.1585,58.0146 31.4919,59.848 29.5,64C 28.2068,64.49 26.8734,64.6567 25.5,64.5C 25.5,62.5 25.5,60.5 25.5,58.5 Z"/></g>
<g><path style="opacity:0.732" fill="#4c138b" d="M 38.5,56.5 C 39.5,56.5 40.5,56.5 41.5,56.5C 41.3347,60.1817 41.5014,63.8484 42,67.5C 43.3117,69.6576 44.9783,69.9909 47,68.5C 47.4988,64.5138 47.6655,60.5138 47.5,56.5C 48.5,56.5 49.5,56.5 50.5,56.5C 50.6657,60.8461 50.499,65.1794 50,69.5C 47.1592,71.5037 43.9926,72.0037 40.5,71C 39.8742,70.2496 39.3742,69.4162 39,68.5C 38.5012,64.5138 38.3345,60.5138 38.5,56.5 Z"/></g>
<g><path style="opacity:0.744" fill="#4c138b" d="M 56.5,56.5 C 59.8984,56.1796 63.2317,56.513 66.5,57.5C 64.2573,58.4742 61.924,58.8076 59.5,58.5C 59.5,60.1667 59.5,61.8333 59.5,63.5C 67.5,64.1667 67.5,64.8333 59.5,65.5C 59.5,66.8333 59.5,68.1667 59.5,69.5C 61.924,69.1924 64.2573,69.5258 66.5,70.5C 63.2317,71.487 59.8984,71.8204 56.5,71.5C 56.5,66.5 56.5,61.5 56.5,56.5 Z"/></g>
<g><path style="opacity:0.734" fill="#4c138b" d="M 80.5,56.5 C 82.1667,56.5 83.8333,56.5 85.5,56.5C 86.6564,67.8119 88.6564,68.1452 91.5,57.5C 93.0453,56.5481 94.712,56.2148 96.5,56.5C 96.5,61.5 96.5,66.5 96.5,71.5C 95.1667,71.5 93.8333,71.5 92.5,71.5C 92.7693,61.6706 91.936,61.3372 90,70.5C 88.9887,71.3366 87.8221,71.67 86.5,71.5C 84.2637,59.7382 83.2637,59.7382 83.5,71.5C 82.5,71.5 81.5,71.5 80.5,71.5C 80.5,66.5 80.5,61.5 80.5,56.5 Z"/></g>
<g><path style="opacity:0.777" fill="#4c138b" d="M 101.5,56.5 C 105.226,56.1774 108.893,56.5108 112.5,57.5C 110.257,58.4742 107.924,58.8076 105.5,58.5C 105.5,60.1667 105.5,61.8333 105.5,63.5C 112.167,64.1667 112.167,64.8333 105.5,65.5C 105.5,66.8333 105.5,68.1667 105.5,69.5C 107.924,69.1924 110.257,69.5258 112.5,70.5C 108.893,71.4892 105.226,71.8226 101.5,71.5C 101.5,66.5 101.5,61.5 101.5,56.5 Z"/></g>
<g><path style="opacity:0.756" fill="#4c138b" d="M 117.5,56.5 C 120.909,56.2493 124.242,56.5827 127.5,57.5C 131.985,67.879 128.651,72.5457 117.5,71.5C 117.5,66.5 117.5,61.5 117.5,56.5 Z M 120.5,58.5 C 124.338,58.0072 126.338,59.6738 126.5,63.5C 126.692,67.8234 124.692,69.8234 120.5,69.5C 120.5,65.8333 120.5,62.1667 120.5,58.5 Z"/></g>
<g><path style="opacity:0.733" fill="#4c138a" d="M 134.5,56.5 C 135.833,56.5 137.167,56.5 138.5,56.5C 138.5,61.5 138.5,66.5 138.5,71.5C 137.167,71.5 135.833,71.5 134.5,71.5C 134.5,66.5 134.5,61.5 134.5,56.5 Z"/></g>
<g><path style="opacity:0.813" fill="#4c138b" d="M 146.5,56.5 C 148.467,56.2606 150.301,56.5939 152,57.5C 153.012,61.8826 154.179,66.2159 155.5,70.5C 155,70.8333 154.5,71.1667 154,71.5C 151.295,67.886 148.461,67.7193 145.5,71C 144.5,71.6667 143.5,71.6667 142.5,71C 144.065,66.2427 145.398,61.4094 146.5,56.5 Z M 148.5,58.5 C 149.718,60.8281 150.718,63.3281 151.5,66C 150.207,66.49 148.873,66.6567 147.5,66.5C 147.833,63.8333 148.167,61.1667 148.5,58.5 Z"/></g>
<g><path style="opacity:0.808" fill="#4c138b" d="M 171.5,56.5 C 173.288,56.2148 174.955,56.5481 176.5,57.5C 177.76,62.0456 179.094,66.5456 180.5,71C 179.5,71.6667 178.5,71.6667 177.5,71C 174.539,67.7193 171.705,67.886 169,71.5C 168.5,71.1667 168,70.8333 167.5,70.5C 168.84,65.8043 170.173,61.1376 171.5,56.5 Z M 173.5,58.5 C 174.768,60.9052 175.435,63.5718 175.5,66.5C 174.127,66.6567 172.793,66.49 171.5,66C 172.554,63.6178 173.221,61.1178 173.5,58.5 Z"/></g>
<g><path style="opacity:0.778" fill="#4c138b" d="M 185.5,56.5 C 192.589,54.5027 196.589,57.0027 197.5,64C 196.589,70.9973 192.589,73.4973 185.5,71.5C 185.5,66.5 185.5,61.5 185.5,56.5 Z M 188.5,58.5 C 192.741,57.9092 194.407,59.7425 193.5,64C 194.407,68.2575 192.741,70.0908 188.5,69.5C 188.5,65.8333 188.5,62.1667 188.5,58.5 Z"/></g>
<g><path style="opacity:0.75" fill="#4c138b" d="M 201.5,56.5 C 202.5,56.5 203.5,56.5 204.5,56.5C 206.946,72.2936 208.946,72.2936 210.5,56.5C 211.5,56.5 212.5,56.5 213.5,56.5C 212.659,61.5322 211.659,66.5322 210.5,71.5C 208.5,71.5 206.5,71.5 204.5,71.5C 203.659,66.4678 202.659,61.4678 201.5,56.5 Z"/></g>
<g><path style="opacity:0.755" fill="#4c148c" d="M 218.5,56.5 C 221.898,56.1796 225.232,56.513 228.5,57.5C 226.257,58.4742 223.924,58.8076 221.5,58.5C 221.5,60.1667 221.5,61.8333 221.5,63.5C 229.5,64.1667 229.5,64.8333 221.5,65.5C 221.5,66.8333 221.5,68.1667 221.5,69.5C 223.924,69.1924 226.257,69.5258 228.5,70.5C 225.232,71.487 221.898,71.8204 218.5,71.5C 218.5,66.5 218.5,61.5 218.5,56.5 Z"/></g>
<g><path style="opacity:0.793" fill="#4c138b" d="M 233.5,56.5 C 243.856,54.0118 247.189,57.5118 243.5,67C 243.903,68.4728 244.57,69.8061 245.5,71C 244.207,71.49 242.873,71.6567 241.5,71.5C 241.803,68.4124 240.47,66.7458 237.5,66.5C 237.5,68.1667 237.5,69.8333 237.5,71.5C 236.167,71.5 234.833,71.5 233.5,71.5C 233.5,66.5 233.5,61.5 233.5,56.5 Z M 237.5,58.5 C 242.587,58.2845 243.587,60.1178 240.5,64C 239.552,64.4828 238.552,64.6495 237.5,64.5C 237.5,62.5 237.5,60.5 237.5,58.5 Z"/></g>
<g><path style="opacity:0.742" fill="#4c138b" d="M 249.5,56.5 C 253.514,56.3345 257.514,56.5012 261.5,57C 260.095,58.2692 258.429,58.7692 256.5,58.5C 256.5,62.8333 256.5,67.1667 256.5,71.5C 255.5,71.5 254.5,71.5 253.5,71.5C 253.5,67.1667 253.5,62.8333 253.5,58.5C 251.517,58.8432 250.183,58.1765 249.5,56.5 Z"/></g>
<g><path style="opacity:0.756" fill="#4d148c" d="M 265.5,56.5 C 266.5,56.5 267.5,56.5 268.5,56.5C 268.5,61.5 268.5,66.5 268.5,71.5C 267.5,71.5 266.5,71.5 265.5,71.5C 265.5,66.5 265.5,61.5 265.5,56.5 Z"/></g>
<g><path style="opacity:0.765" fill="#4c138b" d="M 275.5,56.5 C 278.572,56.1826 281.572,56.5159 284.5,57.5C 282.257,58.4742 279.924,58.8076 277.5,58.5C 277.33,59.8221 277.663,60.9887 278.5,62C 283.491,62.3117 285.325,64.8117 284,69.5C 281.108,71.6729 277.941,72.0063 274.5,70.5C 276.423,69.6922 278.423,69.1922 280.5,69C 281.337,67.9887 281.67,66.8221 281.5,65.5C 274.622,65.3759 272.622,62.3759 275.5,56.5 Z"/></g>
<g><path style="opacity:0.733" fill="#4c138a" d="M 289.5,56.5 C 290.833,56.5 292.167,56.5 293.5,56.5C 293.5,61.5 293.5,66.5 293.5,71.5C 292.167,71.5 290.833,71.5 289.5,71.5C 289.5,66.5 289.5,61.5 289.5,56.5 Z"/></g>
<g><path style="opacity:0.759" fill="#4c138b" d="M 299.5,56.5 C 301.167,56.5 302.833,56.5 304.5,56.5C 307.672,70.7771 309.005,70.7771 308.5,56.5C 309.5,56.5 310.5,56.5 311.5,56.5C 311.5,61.5 311.5,66.5 311.5,71.5C 309.712,71.7852 308.045,71.4519 306.5,70.5C 305.039,67.6181 303.873,64.6181 303,61.5C 302.502,64.8168 302.335,68.1501 302.5,71.5C 301.5,71.5 300.5,71.5 299.5,71.5C 299.5,66.5 299.5,61.5 299.5,56.5 Z"/></g>
<g><path style="opacity:0.753" fill="#4c138b" d="M 319.5,56.5 C 322.572,56.1826 325.572,56.5159 328.5,57.5C 325.973,58.2136 323.473,58.8803 321,59.5C 320.333,62.5 320.333,65.5 321,68.5C 322.356,69.3802 323.856,69.7135 325.5,69.5C 325.672,67.5082 325.005,65.8415 323.5,64.5C 325.045,63.5481 326.712,63.2148 328.5,63.5C 328.5,66.1667 328.5,68.8333 328.5,71.5C 321.411,73.4973 317.411,70.9973 316.5,64C 316.828,61.1712 317.828,58.6712 319.5,56.5 Z"/></g>
</svg>
