<?xml version="1.0" standalone="no"?>
<svg xmlns:xlink="http://www.w3.org/1999/xlink" id="wave" style="transform:rotate(0deg); transition: 0.3s" viewBox="0 0 1440 490" version="1.1" xmlns="http://www.w3.org/2000/svg"><defs><linearGradient id="sw-gradient-0" x1="0" x2="0" y1="1" y2="0"><stop stop-color="rgba(246.263, 229.135, 174.72, 1)" offset="0%"/><stop stop-color="rgba(241.709, 241.709, 241.709, 1)" offset="100%"/></linearGradient></defs><path style="transform:translate(0, 0px); opacity:1" fill="url(#sw-gradient-0)" d="M0,245L34.3,220.5C68.6,196,137,147,206,114.3C274.3,82,343,65,411,81.7C480,98,549,147,617,204.2C685.7,261,754,327,823,294C891.4,261,960,131,1029,73.5C1097.1,16,1166,33,1234,65.3C1302.9,98,1371,147,1440,196C1508.6,245,1577,294,1646,277.7C1714.3,261,1783,180,1851,155.2C1920,131,1989,163,2057,163.3C2125.7,163,2194,131,2263,171.5C2331.4,212,2400,327,2469,318.5C2537.1,310,2606,180,2674,171.5C2742.9,163,2811,278,2880,294C2948.6,310,3017,229,3086,171.5C3154.3,114,3223,82,3291,81.7C3360,82,3429,114,3497,114.3C3565.7,114,3634,82,3703,98C3771.4,114,3840,180,3909,212.3C3977.1,245,4046,245,4114,269.5C4182.9,294,4251,343,4320,302.2C4388.6,261,4457,131,4526,130.7C4594.3,131,4663,261,4731,326.7C4800,392,4869,392,4903,392L4937.1,392L4937.1,490L4902.9,490C4868.6,490,4800,490,4731,490C4662.9,490,4594,490,4526,490C4457.1,490,4389,490,4320,490C4251.4,490,4183,490,4114,490C4045.7,490,3977,490,3909,490C3840,490,3771,490,3703,490C3634.3,490,3566,490,3497,490C3428.6,490,3360,490,3291,490C3222.9,490,3154,490,3086,490C3017.1,490,2949,490,2880,490C2811.4,490,2743,490,2674,490C2605.7,490,2537,490,2469,490C2400,490,2331,490,2263,490C2194.3,490,2126,490,2057,490C1988.6,490,1920,490,1851,490C1782.9,490,1714,490,1646,490C1577.1,490,1509,490,1440,490C1371.4,490,1303,490,1234,490C1165.7,490,1097,490,1029,490C960,490,891,490,823,490C754.3,490,686,490,617,490C548.6,490,480,490,411,490C342.9,490,274,490,206,490C137.1,490,69,490,34,490L0,490Z"/></svg>